<?xml version="1.0" encoding="utf-8"?>
<!-- Generator: Adobe Illustrator 18.0.0, SVG Export Plug-In . SVG Version: 6.00 Build 0)  -->
<!DOCTYPE svg PUBLIC "-//W3C//DTD SVG 1.1//EN" "http://www.w3.org/Graphics/SVG/1.1/DTD/svg11.dtd">
<svg version="1.1" xmlns="http://www.w3.org/2000/svg" xmlns:xlink="http://www.w3.org/1999/xlink" x="0px" y="0px" width="2800px"
	 height="2800px" viewBox="0 0 2800 2800" enable-background="new 0 0 2800 2800" xml:space="preserve">
<g id="BACKGROUND">
	<g>
		<linearGradient id="SVGID_1_" gradientUnits="userSpaceOnUse" x1="1400" y1="2800" x2="1400" y2="-6.285427e-08">
			<stop  offset="0" style="stop-color:#FFFFFF"/>
			<stop  offset="0.1512" style="stop-color:#FBFEFF"/>
			<stop  offset="0.3079" style="stop-color:#EEFAFE"/>
			<stop  offset="0.4671" style="stop-color:#DAF3FD"/>
			<stop  offset="0.6281" style="stop-color:#BDEAFB"/>
			<stop  offset="0.7905" style="stop-color:#97DEF9"/>
			<stop  offset="0.9519" style="stop-color:#6AD0F6"/>
			<stop  offset="1" style="stop-color:#5BCBF5"/>
		</linearGradient>
		<rect fill="url(#SVGID_1_)" width="2800" height="2800"/>
	</g>
	<g>
		<linearGradient id="SVGID_2_" gradientUnits="userSpaceOnUse" x1="1400" y1="2825.8191" x2="1400" y2="392.1809">
			<stop  offset="0" style="stop-color:#FFFFFF;stop-opacity:0"/>
			<stop  offset="0.8625" style="stop-color:#FFFFFF;stop-opacity:0.8625"/>
			<stop  offset="1" style="stop-color:#FFFFFF"/>
		</linearGradient>
		<path fill="url(#SVGID_2_)" d="M2738.1,683.7c-43.5,0-85.3,7.7-123.9,21.8c-77.4-88.1-190.9-143.8-317.4-143.8
			c-208.5,0-381.7,151.2-416,349.9c-7.5-0.6-15.1-1-22.8-1c-59.3,0-113.9,19.6-157.9,52.7c-47.5-68.1-126.4-112.7-215.8-112.7
			c-28.7,0-56.3,4.6-82.1,13.1c-49.8-74.1-127.2-128-217.6-146.9c-44.2-186.1-211.5-324.6-411.1-324.6
			c-177.5,0-329.5,109.5-392,264.6c-30.4,4.2-59.3,12.9-86,25.6C219.4,607.7,115.1,561.7,0,561.7v2264.1h2800V689
			C2779.9,685.5,2759.2,683.7,2738.1,683.7z"/>
		<linearGradient id="SVGID_3_" gradientUnits="userSpaceOnUse" x1="1399.9999" y1="2800" x2="1399.9999" y2="785.7739">
			<stop  offset="0" style="stop-color:#FFFFFF;stop-opacity:0"/>
			<stop  offset="0.8625" style="stop-color:#FFFFFF;stop-opacity:0.8625"/>
			<stop  offset="1" style="stop-color:#FFFFFF"/>
		</linearGradient>
		<path fill="url(#SVGID_3_)" d="M2800,1457.6v-347.2c-94.6,0-180.9,35.5-246.3,94c-37.8-30.4-82.6-52.6-131.6-63.6
			c-79.3-207.6-280.3-355-515.7-355c-242.2,0-447.9,156-522.2,372.9c-15.2-2.2-30.8-3.3-46.6-3.3c-67.9,0-130.9,20.8-183,56.4
			c-76.8-107.3-202.4-177.3-344.4-177.3c-167.5,0-312.2,97.3-380.8,238.4c-18.9-6.1-39-9.4-59.9-9.4c-36.5,0-70.6,10.1-99.7,27.5
			C213.9,1200.7,114,1140.5,0,1140.5l0,317.1v317.1V2800h2800V1457.6L2800,1457.6z"/>
	</g>
</g>
<g id="OBJECTS">
	<g>
		<linearGradient id="SVGID_4_" gradientUnits="userSpaceOnUse" x1="1400" y1="2800" x2="1400" y2="1328.9359">
			<stop  offset="0" style="stop-color:#006038"/>
			<stop  offset="1" style="stop-color:#A6D82F"/>
		</linearGradient>
		<path fill="url(#SVGID_4_)" d="M1999.4,1908.4C1247,1908.4,568.2,1328.9,0,1328.9v579.5h0V2800h2800v-891.6H1999.4z"/>
		<path opacity="0.1" d="M0,1328.9v105.9c341.4,0,749.3,473.6,1201.5,473.6h797.9C1247,1908.4,568.2,1328.9,0,1328.9z"/>
		<linearGradient id="SVGID_5_" gradientUnits="userSpaceOnUse" x1="1400" y1="2800" x2="1400" y2="1375.7949">
			<stop  offset="0" style="stop-color:#58A23B"/>
			<stop  offset="1" style="stop-color:#C1D82F"/>
		</linearGradient>
		<path fill="url(#SVGID_5_)" d="M0,2800h2800v-923.4v-500.8c-740.9,0-1626.1,500.8-2607.2,500.8H0V2800z"/>
		<path opacity="0.1" d="M1334.9,1875.7c550.4-22.7,1047.4-452.2,1465.1-452.2v-47.6c-722.2,0-1581.5,475.9-2533.1,499.9H1334.9z"/>
	</g>
	<ellipse opacity="0.1" cx="1890.6" cy="2627.2" rx="890.9" ry="63.3"/>
	<g>
		<polygon fill="#808080" points="1148.3,2325.4 1141.3,2340 1121,2359.2 1150.2,2355 		"/>
		<polygon fill="#FFFFFF" points="1773,2493.2 1773,2235 1599.8,2235 1653.4,2352.4 1707.9,2437.8 1722.1,2501.7 1709,2550.3 
			1709,2570.8 1674.3,2612 1744.1,2612 1762,2600.4 1762,2572.2 1782.3,2539.8 		"/>
		<polygon fill="#FFFFFF" points="2396.1,2258 2409.2,2402.9 2396.1,2478.1 2366,2551.7 2366,2573.6 2337.1,2616 2409.2,2616 
			2428,2600.4 2428,2558.8 2442.8,2543.3 2450.6,2479.7 2534.3,2258 		"/>
		<polygon fill="#333333" points="2673.4,2193.3 2673.4,1964.9 2681.9,1838.9 2655.8,1769.8 2594.4,1714.8 2514,1689.4 
			2368.8,1689.4 2024.7,1723.3 1758.2,1759.9 1559.4,1773.3 1432.4,1846.6 1311.9,1955.2 1243.5,2134.1 1204.9,2217.8 1141,2271.3 
			1127.8,2318.4 1149.5,2355 1157.9,2427.4 1196.5,2493.2 1216.2,2555.3 1210.6,2589.1 1239.7,2616.4 1282,2616.4 1294.2,2601.3 
			1314,2595.7 1361,2545.9 1378.9,2496 1473.8,2396.4 1672.2,2325.9 1867.7,2309 2171.4,2309 2255,2289.2 2293.6,2319.3 
			2388.5,2340 2547.9,2293 2641,1994 2655.8,1860.8 2655.8,2195.2 2641,2278.9 2666.8,2340 2693.1,2291.1 		"/>
		<polygon fill="#FFFFFF" points="2255,2289.2 2371.6,2242.2 2540.8,2242.2 2547.9,2293 2388.5,2340 2293.6,2319.3 		"/>
		<polygon fill="#FFFFFF" points="1867.7,2309 2171.4,2309 2255,2289.2 2028.9,2281.7 1855.5,2204.1 1747.7,2228.3 1700.4,2302.4 
			1572.5,2323.1 1480.4,2266.2 1455,2060.3 1408.5,2201.3 1408.5,2278.9 1473.8,2396.4 1672.2,2325.9 		"/>
		<polygon fill="#333333" points="2583.8,2177.6 2626.2,2041.3 2349.1,2111.5 2392.3,2207.4 2508.4,2304.6 2566.2,2470.7 
			2549.3,2548.9 2549.3,2580.6 2516.2,2627.2 2605,2627.2 2611.4,2569.4 2626.2,2546.8 2614.2,2474.9 2626.2,2322.6 		"/>
		<polygon fill="#333333" points="1512.3,2138.8 1545.3,2277 1572.5,2323.1 1572.5,2408.6 1578.2,2439.6 1569.7,2507.3 
			1540.1,2560.9 1540.1,2580.6 1512.3,2627.2 1585.7,2627.2 1604.5,2612.1 1604.5,2574.1 1623.3,2549.2 1623.3,2509.7 1674,2395.4 
			1700.4,2302.4 1782.2,2174.5 		"/>
		<polygon opacity="0.2" points="1512.3,2138.8 1512.3,2382.7 1572.5,2361.3 1572.5,2323.1 1545.3,2277 		"/>
		<polygon opacity="0.2" points="1694.3,2324 1867.7,2309 2171.4,2309 2255,2289.2 2293.6,2319.3 2388.5,2340 2508.4,2304.6 
			2392.3,2207.4 2349.1,2111.5 2271.5,2209.8 2124.8,2221.1 1955.6,2174.5 1782.2,2174.5 1700.4,2302.4 		"/>
		<polygon fill="#FFFFFF" points="1595.8,2399.5 1572.5,2391.3 1572.5,2408.6 1578.2,2439.6 1569.7,2507.3 1540.1,2560.9 
			1540.1,2580.6 1512.3,2627.2 1585.7,2627.2 1604.5,2612.1 1604.5,2574.1 1623.3,2549.2 1623.3,2509.7 1672.3,2399.5 		"/>
		<polygon fill="#333333" points="1512.3,2627.2 1585.7,2627.2 1604.5,2612.1 1604.5,2574.1 1614.4,2560.9 1540.1,2560.9 
			1540.1,2580.6 		"/>
		<polygon fill="#333333" points="1708.8,2550.3 1708.8,2570.8 1674.3,2612.4 1744.1,2612.4 1761.7,2600.4 1761.7,2572.2 
			1775.5,2550.3 		"/>
		<polygon fill="#333333" points="2428,2600.4 2428,2558.8 2366,2558.8 2366,2573.6 2337.1,2616.4 2409.2,2616.4 		"/>
		<polygon fill="#FFFFFF" points="2524.6,2351.1 2566.2,2470.7 2549.3,2548.9 2549.3,2580.6 2516.2,2627.2 2605,2627.2 
			2611.4,2569.4 2626.2,2546.8 2614.2,2474.9 2626.2,2322.6 2616.2,2288.2 2573.7,2340 		"/>
		<polygon fill="#333333" points="2549.3,2580.6 2516.2,2627.2 2605,2627.2 2611.4,2569.4 2549.3,2569.4 		"/>
		<polygon fill="#808080" points="1141,2271.3 1114.4,2299.6 1088.1,2369.1 1126.2,2324.5 1153.9,2309.9 1158.6,2284.5 		"/>
		<polygon fill="#FF91CF" points="1216.2,2555.3 1210.6,2589.1 1239.7,2616.4 1282,2616.4 1294.2,2601.3 1257.6,2560.9 		"/>
		<polygon fill="#FFFFFF" points="2580.3,1827.6 2594.4,1714.8 2514,1689.4 2368.8,1689.4 2024.7,1723.3 1758.2,1759.9 
			1559.4,1773.3 1480.4,1818.9 1480.4,1908 1638.3,2067.3 1834.3,2099.8 1926,2033.5 1947.2,1933.4 1911.9,1851.6 1782.2,1809.3 
			1792,1772.6 2010.6,1741.6 2210.1,1786.2 2255,1927.9 2435.7,2050.6 2619.9,2061.7 2641,1994 2641,1904.7 		"/>
		<ellipse opacity="0.2" cx="1206.3" cy="2415.1" rx="15.1" ry="18.2"/>
		<ellipse cx="1206.3" cy="2415.1" rx="13.2" ry="15.9"/>
		
			<ellipse transform="matrix(-0.7071 -0.7071 0.7071 -0.7071 362.0721 4966.709)" fill="#FFFFFF" cx="1209.7" cy="2408.4" rx="7.7" ry="5.1"/>
		<polygon opacity="0.2" points="1241.2,2242.3 1202.3,2247.3 1180.7,2292.2 1206.3,2295.8 1218.2,2315.7 1253.6,2283.5 		"/>
		<polygon opacity="0.2" points="1258,2237 1271.7,2279 1244.9,2315.7 1277.3,2279 		"/>
	</g>
	<ellipse opacity="0.1" cx="639.5" cy="2099.2" rx="556.7" ry="39.6"/>
	<g>
		<polygon fill="#808080" points="1103.4,1910.7 1107.7,1919.8 1120.4,1931.8 1102.2,1929.2 		"/>
		<polygon fill="#FFFFFF" points="787.8,1927.4 821.3,1854 713,1854 713,2015.5 707.2,2044.6 720,2064.9 720,2082.5 731.1,2090 
			774.7,2090 753,2064 753,2051.2 744.8,2020.8 753.7,1980.9 		"/>
		<polygon fill="#FFFFFF" points="343,2065.7 343,2052.1 324,2006.1 315.6,1959.3 323.7,1869 237.4,1869 289.6,2007.3 294.6,2046.9 
			304,2056.5 304,2082.5 315.5,2092 360.6,2092 		"/>
		<polygon fill="#333333" points="150.4,1828.1 150.4,1685.4 145.1,1606.7 161.4,1563.5 199.8,1529.1 250,1513.3 340.8,1513.3 
			555.7,1534.4 722.3,1557.3 846.5,1565.7 925.8,1611.5 1001.1,1679.4 1043.9,1791.1 1068,1843.4 1107.9,1876.9 1116.1,1906.3 
			1102.6,1929.2 1097.3,1974.4 1073.2,2015.5 1060.9,2054.3 1064.4,2075.4 1046.2,2092.5 1019.8,2092.5 1012.2,2083.1 999.8,2079.5 
			970.5,2048.4 959.3,2017.3 900,1955 776,1911 653.8,1900.4 464.1,1900.4 411.8,1888.1 387.7,1906.8 328.4,1919.8 228.9,1890.4 
			170.7,1703.6 161.4,1620.3 161.4,1829.3 170.7,1881.6 154.5,1919.8 138.1,1889.2 		"/>
		<polygon fill="#FFFFFF" points="411.8,1888.1 339,1858.7 233.3,1858.7 228.9,1890.4 328.4,1919.8 387.7,1906.8 		"/>
		<polygon fill="#FFFFFF" points="653.8,1900.4 464.1,1900.4 411.8,1888.1 553.1,1883.4 661.5,1834.9 728.8,1850 758.4,1896.3 
			838.3,1909.2 895.9,1873.7 911.7,1745 940.8,1833.1 940.8,1881.6 900,1955 776,1911 		"/>
		<polygon fill="#333333" points="206.4,1818.3 179.9,1733.2 353.1,1777 326.1,1836.9 253.5,1897.7 217.4,2001.4 228,2050.3 
			228,2070.1 248.7,2099.2 193.2,2099.2 189.2,2063.1 179.9,2049 187.4,2004.1 179.9,1908.9 		"/>
		<polygon fill="#333333" points="875.9,1794.1 855.3,1880.4 838.3,1909.2 838.3,1962.7 834.8,1982 840,2024.3 858.6,2057.8 
			858.6,2070.1 875.9,2099.2 830.1,2099.2 818.3,2089.8 818.3,2066 806.6,2050.5 806.6,2025.8 774.8,1954.4 758.4,1896.3 
			707.3,1816.4 		"/>
		<polygon opacity="0.2" points="875.9,1794.1 875.9,1946.5 838.3,1933.1 838.3,1909.2 855.3,1880.4 		"/>
		<polygon opacity="0.2" points="762.2,1909.8 653.8,1900.4 464.1,1900.4 411.8,1888.1 387.7,1906.8 328.4,1919.8 253.5,1897.7 
			326.1,1836.9 353.1,1777 401.5,1838.4 493.2,1845.5 598.9,1816.4 707.3,1816.4 758.4,1896.3 		"/>
		<polygon fill="#FFFFFF" points="823.7,1956.9 838.3,1951.8 838.3,1962.7 834.8,1982 840,2024.3 858.6,2057.8 858.6,2070.1 
			875.9,2099.2 830.1,2099.2 818.3,2089.8 818.3,2066 806.6,2050.5 806.6,2025.8 776,1956.9 		"/>
		<polygon fill="#333333" points="875.9,2099.2 830.1,2099.2 818.3,2089.8 818.3,2066 812.1,2057.8 858.6,2057.8 858.6,2070.1 		"/>
		<polygon fill="#333333" points="753.1,2051.2 753.1,2064 774.7,2090 731.1,2090 720.1,2082.5 720.1,2064.9 711.5,2051.2 		"/>
		<polygon fill="#333333" points="303.7,2082.5 303.7,2056.5 342.5,2056.5 342.5,2065.7 360.6,2092.5 315.5,2092.5 		"/>
		<polygon fill="#FFFFFF" points="243.4,1926.7 217.4,2001.4 228,2050.3 228,2070.1 248.7,2099.2 193.2,2099.2 189.2,2063.1 
			179.9,2049 187.4,2004.1 179.9,1908.9 186.2,1887.4 212.7,1919.8 		"/>
		<polygon fill="#333333" points="228,2070.1 248.7,2099.2 193.2,2099.2 189.2,2063.1 228,2063.1 		"/>
		<polygon fill="#808080" points="1107.9,1876.9 1124.5,1894.5 1140.9,1938 1117.2,1910.1 1099.8,1901 1096.9,1885.1 		"/>
		<polygon fill="#FF91CF" points="1060.9,2054.3 1064.4,2075.4 1046.2,2092.5 1019.8,2092.5 1012.2,2083.1 1035.1,2057.8 		"/>
		<ellipse opacity="0.2" cx="1067.1" cy="1966.7" rx="9.4" ry="11.4"/>
		<ellipse cx="1067.1" cy="1966.7" rx="8.2" ry="9.9"/>
		
			<ellipse transform="matrix(0.7071 -0.7071 0.7071 0.7071 -1075.7692 1327.8689)" fill="#FFFFFF" cx="1065" cy="1962.5" rx="4.8" ry="3.2"/>
		<polygon opacity="0.2" points="1045.3,1858.7 1069.6,1861.9 1083.1,1889.9 1067.1,1892.2 1059.7,1904.6 1037.5,1884.5 		"/>
		<polygon opacity="0.2" points="1034.8,1855.5 1026.3,1881.7 1043,1904.6 1022.7,1881.7 		"/>
		<polygon fill="#FFFFFF" points="250,1513.3 161.4,1620.3 170.7,1703.6 237.4,1703.7 307,1742.7 390.3,1654.4 340.8,1513.3 		"/>
		<polygon fill="#FFFFFF" points="459.4,1525 428,1564.5 443.7,1639.7 558,1644.7 566,1704.7 608,1731.6 720,1699.7 846.5,1565.7 
			722.3,1557.3 555.7,1534.4 		"/>
		<polygon fill="#FFFFFF" points="925.8,1611.5 869,1643.7 869,1702.4 1001.1,1679.4 		"/>
	</g>
</g>
</svg>
